<?xml version="1.0" standalone="no"?>
<!DOCTYPE svg PUBLIC "-//W3C//DTD SVG 20010904//EN"
 "http://www.w3.org/TR/2001/REC-SVG-20010904/DTD/svg10.dtd">
<svg version="1.0" xmlns="http://www.w3.org/2000/svg"
 width="225.000000pt" height="225.000000pt" viewBox="0 0 225.000000 225.000000"
 preserveAspectRatio="xMidYMid meet">
<metadata>
Created by potrace 1.11, written by Peter Selinger 2001-2013
</metadata>
<g transform="translate(0.000000,225.000000) scale(0.100000,-0.100000)"
fill="#000000" stroke="none">
<path d="M882 1566 l-243 -134 243 -139 242 -140 225 130 c124 71 232 135 239
141 10 10 -29 35 -185 121 -109 59 -216 118 -238 131 l-40 23 -243 -133z"/>
<path d="M610 1107 l0 -263 178 -97 c97 -53 205 -113 240 -132 l62 -35 0 258
-1 257 -192 110 c-105 61 -213 122 -239 138 l-48 27 0 -263z"/>
<path d="M1398 1232 l-238 -137 0 -252 c0 -139 3 -253 6 -253 3 0 111 57 240
128 l233 127 1 263 c0 144 -1 262 -2 262 -2 0 -110 -62 -240 -138z"/>
</g>
</svg>
